<?xml version="1.0" encoding="utf-8"?>
<!-- Generator: Adobe Illustrator 24.1.2, SVG Export Plug-In . SVG Version: 6.00 Build 0)  -->
<svg version="1.1" id="图层_1" xmlns="http://www.w3.org/2000/svg" xmlns:xlink="http://www.w3.org/1999/xlink" x="0px" y="0px"
	 viewBox="0 0 120 120" style="enable-background:new 0 0 120 120;" xml:space="preserve">
<style type="text/css">
	.st0{fill:none;stroke:#BDC5D1;stroke-width:1.5;stroke-linecap:round;stroke-linejoin:round;stroke-miterlimit:10;}
	.st1{fill:#FFFFFF;stroke:#377DFF;stroke-width:3;stroke-miterlimit:10;}
	.st2{opacity:0.5;fill:#BDC5D1;enable-background:new    ;}
	.st3{fill:#377DFF;}
	.st4{fill:#FFFFFF;}
	.st5{fill:#FFFFFF;stroke:#BDC5D1;stroke-linecap:round;stroke-linejoin:round;stroke-miterlimit:10;}
	
		.st6{opacity:0.2;fill:#BDC5D1;stroke:#BDC5D1;stroke-linecap:round;stroke-linejoin:round;stroke-miterlimit:10;enable-background:new    ;}
	.st7{fill:none;stroke:#377DFF;stroke-width:5;stroke-linecap:round;stroke-linejoin:round;stroke-miterlimit:10;}
</style>
<path class="st0" d="M49.6,33.7L49.6,33.7c-1.2,0-2.2-1-2.2-2.2v-4.7c0-1.2-1-2.2-2.2-2.2h-4.1c-1.2,0-2.2-1-2.2-2.2V11.7
	c0-1.2,1-2.2,2.2-2.2l0,0c1.2,0,2.2,1,2.2,2.2v6.5c0,1.2,1,2.2,2.2,2.2h4.1c1.2,0,2.2,1,2.2,2.2v9.1C51.8,32.8,50.8,33.7,49.6,33.7z
	"/>
<ellipse class="st1" cx="41.2" cy="6.7" rx="4.5" ry="4.4"/>
<path class="st0" d="M70.4,33.7L70.4,33.7c-1.2,0-2.2-1-2.2-2.2v-9.1c0-1.2,1-2.2,2.2-2.2h4.1c1.2,0,2.2-1,2.2-2.2v-6.5
	c0-1.2,1-2.2,2.2-2.2l0,0c1.2,0,2.2,1,2.2,2.2v10.8c0,1.2-1,2.2-2.2,2.2h-4.1c-1.2,0-2.2,1-2.2,2.2v4.7
	C72.6,32.8,71.6,33.7,70.4,33.7z"/>
<ellipse class="st1" cx="78.8" cy="6.7" rx="4.5" ry="4.4"/>
<path class="st0" d="M78.8,111.5L78.8,111.5c-1.2,0-2.2-1-2.2-2.2v-6.5c0-1.2-1-2.2-2.2-2.2h-4.1c-1.2,0-2.2-1-2.2-2.2v-9.1
	c0-1.2,1-2.2,2.2-2.2l0,0c1.2,0,2.2,1,2.2,2.2V94c0,1.2,1,2.2,2.2,2.2h4.1c1.2,0,2.2,1,2.2,2.2v10.8C81,110.5,80,111.5,78.8,111.5z"
	/>
<ellipse class="st1" cx="78.5" cy="113.4" rx="4.4" ry="4.3"/>
<path class="st0" d="M41.2,111.5L41.2,111.5c-1.2,0-2.2-1-2.2-2.2V98.5c0-1.2,1-2.2,2.2-2.2h4.1c1.2,0,2.2-1,2.2-2.2v-4.7
	c0-1.2,1-2.2,2.2-2.2l0,0c1.2,0,2.2,1,2.2,2.2v9.1c0,1.2-1,2.2-2.2,2.2h-4.1c-1.2,0-2.2,1-2.2,2.2v6.5
	C43.4,110.5,42.4,111.5,41.2,111.5z"/>
<ellipse class="st1" cx="41.5" cy="113.4" rx="4.4" ry="4.3"/>
<path class="st0" d="M22,81.5H11.2c-1.2,0-2.2-1-2.2-2.2l0,0c0-1.2,1-2.2,2.2-2.2h6.5c1.2,0,2.2-1,2.2-2.2v-4.1c0-1.2,1-2.2,2.2-2.2
	h9.1c1.2,0,2.2,1,2.2,2.2l0,0c0,1.2-1,2.2-2.2,2.2h-4.7c-1.2,0-2.2,1-2.2,2.2v4.1C24.2,80.5,23.2,81.5,22,81.5z"/>
<ellipse class="st1" cx="6.1" cy="79.3" rx="4.4" ry="4.5"/>
<path class="st0" d="M31.1,52.3H22c-1.2,0-2.2-1-2.2-2.2V46c0-1.2-1-2.2-2.2-2.2h-6.5c-1.2,0-2.2-1-2.2-2.2l0,0c0-1.2,1-2.2,2.2-2.2
	H22c1.2,0,2.2,1,2.2,2.2v4.1c0,1.2,1,2.2,2.2,2.2h4.7c1.2,0,2.2,1,2.2,2.2l0,0C33.2,51.3,32.3,52.3,31.1,52.3z"/>
<ellipse class="st1" cx="6.1" cy="41.7" rx="4.4" ry="4.5"/>
<path class="st0" d="M98,52.3h-9.1c-1.2,0-2.2-1-2.2-2.2l0,0c0-1.2,1-2.2,2.2-2.2h4.7c1.2,0,2.2-1,2.2-2.2v-4.1c0-1.2,1-2.2,2.2-2.2
	h10.8c1.2,0,2.2,1,2.2,2.2l0,0c0,1.2-1,2.2-2.2,2.2h-6.5c-1.2,0-2.2,1-2.2,2.2v4.1C100.2,51.3,99.2,52.3,98,52.3z"/>
<ellipse class="st1" cx="113.9" cy="41.7" rx="4.4" ry="4.5"/>
<path class="st0" d="M108.8,81.5H98c-1.2,0-2.2-1-2.2-2.2v-4.1c0-1.2-1-2.2-2.2-2.2h-4.7c-1.2,0-2.2-1-2.2-2.2l0,0
	c0-1.2,1-2.2,2.2-2.2H98c1.2,0,2.2,1,2.2,2.2V75c0,1.2,1,2.2,2.2,2.2h6.5c1.2,0,2.2,1,2.2,2.2l0,0C111,80.5,110,81.5,108.8,81.5z"/>
<ellipse class="st1" cx="113.9" cy="79.3" rx="4.4" ry="4.5"/>
<path class="st2" d="M86.9,100.2H53.2c-7.1,0-12.9-5.8-12.9-12.9V53.6c0-7.1,5.8-12.9,12.9-12.9h33.7c7.1,0,12.9,5.8,12.9,12.9v33.7
	C99.8,94.4,94,100.2,86.9,100.2z"/>
<path class="st3" d="M76.9,90.2H43.2c-7.1,0-12.9-5.8-12.9-12.9V43.6c0-7.1,5.8-12.9,12.9-12.9h33.7c7.1,0,12.9,5.8,12.9,12.9v33.7
	C89.8,84.4,84.1,90.2,76.9,90.2z"/>
<path class="st4" d="M77.4,85.3H42.8c-4.1,0-7.5-3.3-7.5-7.5V43.2c0-4.1,3.3-7.5,7.5-7.5h34.6c4.1,0,7.5,3.3,7.5,7.5v34.6
	C84.9,81.9,81.5,85.3,77.4,85.3z M42.8,40c-1.7,0-3.1,1.4-3.1,3.1v34.6c0,1.7,1.4,3.1,3.1,3.1h34.6c1.7,0,3.1-1.4,3.1-3.1V43.2
	c0-1.7-1.4-3.1-3.1-3.1H42.8V40z"/>
<g>
	<path class="st5" d="M63.8,66.7C62.5,68,61,69,59.3,69.6C55,68,51.8,63.9,51.8,59v-4.2l7.5-2.5l7.5,2.5V59c0,1.5-0.3,3-0.9,4.3
		C66,63.2,65.1,65.5,63.8,66.7z"/>
	<path class="st6" d="M59.3,52.3L59.3,52.3v17.3c1.7-0.6,3.2-1.6,4.4-2.9c1.3-1.2,2.3-3.5,2.3-3.5c0.5-1.3,0.9-2.8,0.9-4.3v-4.2
		L59.3,52.3z"/>
	<path class="st7" d="M60.7,58.8"/>
</g>
</svg>
