<?xml version="1.0" encoding="utf-8"?>
<!-- Generator: Adobe Illustrator 24.1.2, SVG Export Plug-In . SVG Version: 6.00 Build 0)  -->
<svg version="1.1" id="图层_1" xmlns="http://www.w3.org/2000/svg" xmlns:xlink="http://www.w3.org/1999/xlink" x="0px" y="0px"
	 viewBox="0 0 200.4 66.5" style="enable-background:new 0 0 200.4 66.5;" xml:space="preserve">
<style type="text/css">
	.st0{fill:#EA4335;}
	.st1{fill:#4285F4;}
	.st2{fill:#34A853;}
	.st3{fill:#FBBC05;}
	.st4{fill:#5F6368;}
</style>
<g>
	<g>
		<path class="st0" d="M23.57,25.79h1.13l3.23-3.23l0.16-1.37c-6.01-5.31-15.18-4.73-20.49,1.28c-1.47,1.67-2.54,3.65-3.13,5.8
			c0.36-0.15,0.76-0.17,1.13-0.07l6.46-1.07c0,0,0.33-0.54,0.5-0.51c2.87-3.16,7.71-3.52,11.02-0.84H23.57z"/>
		<path class="st1" d="M32.53,28.27c-0.74-2.73-2.27-5.19-4.38-7.07l-4.53,4.53c1.91,1.56,3,3.92,2.96,6.39v0.81
			c2.23,0,4.03,1.81,4.03,4.03s-1.81,4.03-4.03,4.03h-8.07l-0.81,0.82v4.84l0.81,0.81h8.07c5.79,0.04,10.53-4.62,10.57-10.41
			C37.18,33.53,35.44,30.23,32.53,28.27z"/>
		<path class="st2" d="M10.43,47.4h8.07v-6.46h-8.07c-0.58,0-1.14-0.12-1.67-0.36l-1.13,0.35l-3.25,3.23L4.1,45.3
			C5.92,46.67,8.14,47.41,10.43,47.4z"/>
		<path class="st3" d="M10.43,26.45C4.63,26.49-0.03,31.21,0,37.01c0.02,3.24,1.53,6.28,4.1,8.25l4.68-4.68
			c-2.03-0.92-2.93-3.31-2.02-5.34s3.31-2.93,5.34-2.02c0.89,0.4,1.61,1.12,2.02,2.02l4.68-4.68C16.8,27.96,13.71,26.44,10.43,26.45
			z"/>
	</g>
	<g>
		<g>
			<path class="st4" d="M58.63,42.89c-2.81,0.04-5.51-1.07-7.48-3.07c-2.04-1.91-3.17-4.59-3.14-7.39c-0.03-2.79,1.1-5.47,3.14-7.39
				c1.96-2.02,4.66-3.15,7.48-3.13c2.68-0.04,5.26,1.01,7.17,2.89l-2.02,2.05c-1.38-1.34-3.24-2.07-5.16-2.04
				c-2.01-0.02-3.95,0.8-5.33,2.27c-1.43,1.42-2.22,3.36-2.19,5.38c-0.02,1.99,0.77,3.91,2.19,5.31c2.92,2.91,7.62,2.96,10.61,0.12
				c0.89-0.97,1.43-2.21,1.55-3.52h-6.8v-2.9h9.62c0.09,0.58,0.13,1.18,0.11,1.77c0.12,2.47-0.78,4.89-2.48,6.69
				C64.01,41.91,61.37,42.99,58.63,42.89z M80.99,40.97c-2.68,2.57-6.92,2.57-9.6,0c-1.3-1.26-2.01-3.01-1.96-4.81
				c-0.05-1.81,0.66-3.55,1.96-4.81c2.68-2.56,6.91-2.56,9.6,0c1.3,1.26,2.01,3.01,1.96,4.81c0.05,1.81-0.67,3.56-1.97,4.81H80.99z
				 M73.51,39.08c1.38,1.48,3.71,1.56,5.19,0.17c0.06-0.06,0.12-0.11,0.17-0.17c0.76-0.78,1.16-1.84,1.13-2.92
				c0.03-1.09-0.37-2.15-1.13-2.93c-1.42-1.49-3.78-1.54-5.27-0.11c-0.04,0.04-0.08,0.07-0.11,0.11c-0.76,0.78-1.17,1.84-1.13,2.93
				c-0.03,1.09,0.38,2.14,1.14,2.92H73.51L73.51,39.08z M95.74,40.97c-2.68,2.57-6.92,2.57-9.6,0c-1.3-1.26-2.01-3.01-1.96-4.81
				c-0.05-1.81,0.66-3.55,1.96-4.81c2.68-2.57,6.92-2.57,9.6,0c1.3,1.26,2.01,3.01,1.96,4.81C97.76,37.96,97.04,39.71,95.74,40.97z
				 M88.27,39.08c1.38,1.48,3.71,1.56,5.19,0.17c0.06-0.06,0.12-0.11,0.17-0.17c0.76-0.78,1.16-1.84,1.13-2.92
				c0.03-1.09-0.37-2.15-1.13-2.93c-1.42-1.49-3.78-1.54-5.27-0.11c-0.04,0.04-0.08,0.07-0.11,0.11c-0.76,0.78-1.17,1.84-1.13,2.93
				c-0.03,1.09,0.38,2.14,1.14,2.92H88.27L88.27,39.08z M105.44,48.94c-1.36,0.04-2.69-0.38-3.77-1.2c-0.96-0.72-1.72-1.68-2.2-2.79
				l2.58-1.08c0.28,0.66,0.72,1.24,1.28,1.69c0.6,0.48,1.35,0.74,2.12,0.71c0.99,0.06,1.95-0.31,2.64-1.02
				c0.68-0.82,1.02-1.88,0.94-2.95v-0.97h-0.1c-0.88,1.04-2.19,1.61-3.55,1.53c-1.72,0-3.36-0.71-4.53-1.97
				c-1.27-1.25-1.97-2.97-1.94-4.75c-0.03-1.79,0.67-3.52,1.94-4.78c1.17-1.27,2.81-1.99,4.53-1.98c0.72,0,1.43,0.16,2.08,0.46
				c0.56,0.25,1.07,0.61,1.47,1.08h0.1v-1.08h2.81v12.07c0.15,1.93-0.5,3.84-1.8,5.27C108.82,48.37,107.16,49,105.44,48.94z
				 M105.65,40.24c0.98,0.02,1.92-0.39,2.56-1.13c0.7-0.8,1.07-1.84,1.03-2.9c0.04-1.08-0.33-2.14-1.03-2.96
				c-0.64-0.74-1.58-1.16-2.56-1.13c-1.01-0.02-1.97,0.39-2.65,1.13c-0.75,0.79-1.16,1.85-1.13,2.93c-0.02,1.08,0.38,2.12,1.13,2.9
				C103.67,39.83,104.64,40.26,105.65,40.24z M116.85,22.68v19.8h-2.96v-19.8H116.85z M124.97,42.89c-1.79,0.05-3.52-0.66-4.77-1.94
				c-1.27-1.27-1.96-3.01-1.92-4.8c-0.07-1.8,0.6-3.55,1.85-4.85c1.18-1.24,2.82-1.93,4.53-1.89c0.78-0.01,1.55,0.14,2.27,0.44
				c0.65,0.26,1.24,0.65,1.73,1.13c0.43,0.41,0.81,0.87,1.13,1.37c0.26,0.42,0.49,0.87,0.67,1.32l0.31,0.77l-9.06,3.73
				c0.56,1.29,1.86,2.1,3.26,2.04c1.36,0,2.62-0.71,3.32-1.87l2.27,1.53c-0.58,0.83-1.32,1.53-2.18,2.06
				C127.36,42.59,126.17,42.92,124.97,42.89z M121.18,35.95l6.03-2.5c-0.19-0.44-0.52-0.81-0.94-1.03c-0.47-0.27-1.01-0.4-1.55-0.4
				c-0.92,0.02-1.8,0.41-2.44,1.08C121.51,33.83,121.1,34.88,121.18,35.95z"/>
		</g>
		<g>
			<path class="st4" d="M146.25,42.89c-5.16,0.09-9.41-4.02-9.5-9.17c0-0.12,0-0.25,0-0.38c-0.12-5.16,3.96-9.43,9.12-9.55
				c0.12,0,0.25,0,0.38,0c2.58-0.08,5.05,1.02,6.72,2.99l-1.63,1.59c-1.22-1.54-3.11-2.4-5.08-2.32c-1.88-0.04-3.71,0.69-5.04,2.02
				c-1.39,1.4-2.13,3.31-2.05,5.28c-0.08,1.97,0.66,3.88,2.05,5.28c1.34,1.33,3.16,2.06,5.04,2.02c2.19,0.02,4.28-0.95,5.66-2.65
				l1.63,1.63c-0.85,1.02-1.93,1.84-3.14,2.39C149.12,42.61,147.69,42.92,146.25,42.89z"/>
			<path class="st4" d="M157.95,42.49h-2.35v-18.3h2.35V42.49z"/>
			<path class="st4" d="M161.78,31.47c2.56-2.54,6.69-2.54,9.25,0c1.21,1.28,1.87,2.99,1.81,4.76c0.05,1.76-0.6,3.48-1.81,4.76
				c-2.56,2.54-6.69,2.54-9.25,0c-1.21-1.28-1.87-2.99-1.81-4.76C159.91,34.47,160.56,32.75,161.78,31.47z M163.52,39.52
				c1.5,1.59,4,1.65,5.59,0.15c0.05-0.05,0.1-0.1,0.15-0.15c0.83-0.89,1.26-2.07,1.21-3.28c0.05-1.21-0.38-2.4-1.21-3.28
				c-1.5-1.59-4-1.65-5.59-0.15c-0.05,0.05-0.1,0.1-0.15,0.15c-0.83,0.89-1.26,2.07-1.21,3.28c-0.05,1.21,0.39,2.39,1.22,3.27
				L163.52,39.52z"/>
			<path class="st4" d="M185.83,42.49h-2.27v-1.73h-0.07c-0.4,0.66-0.97,1.2-1.65,1.56c-0.7,0.41-1.51,0.62-2.32,0.62
				c-1.34,0.09-2.65-0.43-3.56-1.43c-0.86-1.09-1.29-2.45-1.21-3.83v-7.7h2.35v7.27c0,2.33,1.03,3.5,3.09,3.5
				c0.93,0.03,1.82-0.39,2.38-1.13c0.61-0.77,0.93-1.73,0.92-2.71v-6.94h2.35L185.83,42.49L185.83,42.49z"/>
			<path class="st4" d="M193.79,42.89c-1.61,0-3.14-0.69-4.19-1.92c-1.18-1.3-1.8-3-1.76-4.75c-0.05-1.75,0.58-3.45,1.76-4.75
				c1.05-1.22,2.58-1.92,4.19-1.92c0.89-0.01,1.77,0.2,2.56,0.61c0.69,0.35,1.28,0.88,1.7,1.53h0.1l-0.1-1.73v-5.79h2.35v18.3h-2.27
				v-1.73h-0.1c-0.42,0.65-1.01,1.18-1.7,1.53C195.55,42.69,194.68,42.9,193.79,42.89z M194.18,40.75c1.07,0.02,2.1-0.43,2.82-1.22
				c0.8-0.91,1.2-2.09,1.13-3.3c0.07-1.2-0.34-2.39-1.13-3.3c-1.42-1.57-3.84-1.68-5.41-0.25c-0.09,0.08-0.17,0.17-0.25,0.25
				c-0.8,0.9-1.21,2.08-1.13,3.28c-0.07,1.2,0.33,2.38,1.13,3.28C192.06,40.31,193.1,40.77,194.18,40.75z"/>
		</g>
	</g>
</g>
</svg>
