<?xml version="1.0" encoding="utf-8"?>
<!-- Generator: Adobe Illustrator 24.1.2, SVG Export Plug-In . SVG Version: 6.00 Build 0)  -->
<svg version="1.1" id="_x30_315a8ac-3017-4957-93c4-92e478eebb20"
	 xmlns="http://www.w3.org/2000/svg" xmlns:xlink="http://www.w3.org/1999/xlink" x="0px" y="0px" viewBox="0 0 1036 612"
	 style="enable-background:new 0 0 1036 612;" xml:space="preserve">
<style type="text/css">
	.st0{opacity:0.2;fill:#63C0FF;enable-background:new    ;}
	.st1{fill:#F5F5F5;}
	.st2{fill:#535461;}
	.st3{fill:#FFFFFF;}
	.st4{fill:url(#SVGID_1_);}
	.st5{fill:url(#SVGID_2_);}
	.st6{fill:none;stroke:#535461;stroke-width:2;stroke-miterlimit:10;}
	.st7{fill:#63C0FF;}
	.st8{fill:#DDDBE2;}
	.st9{fill:#333333;}
</style>
<path class="st0" d="M151.4,0.1c-8.1-0.2-16.3,0-23.9,2.3c-20.6,6.3-30.3,27-27.1,44.9s16.2,33.4,29.7,47.7s28.2,28.3,35.6,45.3
	c3.7,8.5,5.4,18,1.7,26.5c-5.8,13.1-23.3,20.4-40.1,21.9s-33.6-1.4-50.5-2.4c-7.1-0.4-14.3-0.5-21,1.5c-7.3,2.1-13.4,6.3-19,10.8
	c-21.8,17.4-39.3,41.1-36.5,66c3.2,28.2,31.7,50.5,63,62.5c10.4,4,21.3,7.2,30.4,12.8c24,14.9,29.4,42.9,27,67.6s-10.5,49.5-6,73.9
	c5.3,28.5,28.9,54.2,60.7,66.3c28.4,10.7,63.8,10,89-5.1c12.3-7.4,21.5-17.6,29.6-28.2c12-15.7,21.9-32.8,29.5-51
	c3.5-8.5,6.8-17.6,15-23.5c5-3.6,11.5-5.7,17.9-7.2c19.3-4.8,39.7-6.1,59.2-10.3s39.1-12.2,49.7-26.3c15-20,8-45.6,8.1-69.1
	c0.1-53.7,39.1-101.7,53.5-154c4.7-17.1,6.5-36-4-51.3c-7.1-10.4-19.2-17.8-31.8-23.6c-27.8-12.7-59.4-18.3-90.5-23.8
	c-43.2-7.6-95.7-8.6-129.2-33.4C239.2,17,195.2,0.1,151.4,0.1z"/>
<ellipse class="st1" cx="571" cy="487.5" rx="465" ry="124.5"/>
<path class="st2" d="M353.4,100.4H835c12.8,0,23.3,10.4,23.3,23.3v281.5c0,12.8-10.4,23.3-23.3,23.3H353.4
	c-12.8,0-23.3-10.4-23.3-23.3V123.7C330.1,110.8,340.5,100.4,353.4,100.4z"/>
<rect x="341.2" y="115" class="st3" width="504.8" height="301.2"/>
<linearGradient id="SVGID_1_" gradientUnits="userSpaceOnUse" x1="473.945" y1="-23.61" x2="473.945" y2="310.35" gradientTransform="matrix(1 0 0 -1 -82 468)">
	<stop  offset="0" style="stop-color:#808080;stop-opacity:0.25"/>
	<stop  offset="0.54" style="stop-color:#808080;stop-opacity:0.12"/>
	<stop  offset="1" style="stop-color:#808080;stop-opacity:0.1"/>
</linearGradient>
<path class="st4" d="M498.4,157.6H285.5c-10.8,0-19.5,8.7-19.5,19.5v295c0,10.8,8.8,19.5,19.5,19.5h212.9c10.8,0,19.5-8.7,19.5-19.5
	v-295C517.9,166.4,509.2,157.6,498.4,157.6z"/>
<path class="st2" d="M288.9,161.6h206c11,0,20,9,20,20v287c0,11-9,20-20,20h-206c-11,0-20-9-20-20v-287
	C268.9,170.6,277.9,161.6,288.9,161.6z"/>
<rect x="281.4" y="174" class="st3" width="221" height="304"/>
<circle class="st3" cx="393.4" cy="168.1" r="2.5"/>
<linearGradient id="SVGID_2_" gradientUnits="userSpaceOnUse" x1="363.445" y1="-50.65" x2="363.445" y2="210.35" gradientTransform="matrix(1 0 0 -1 -82 468)">
	<stop  offset="0" style="stop-color:#808080;stop-opacity:0.25"/>
	<stop  offset="0.54" style="stop-color:#808080;stop-opacity:0.12"/>
	<stop  offset="1" style="stop-color:#808080;stop-opacity:0.1"/>
</linearGradient>
<path class="st5" d="M336.1,257.6H226.8c-6,0-10.8,4.8-10.8,10.8v0v239.4c0,6,4.9,10.8,10.8,10.8l0,0h109.3c6,0,10.8-4.8,10.8-10.8
	l0,0V268.4C346.9,262.5,342.1,257.6,336.1,257.6L336.1,257.6z"/>
<path class="st2" d="M227.9,259.6h107c6.1,0,11,4.9,11,11v236c0,6.1-4.9,11-11,11h-107c-6.1,0-11-4.9-11-11v-236
	C216.9,264.6,221.9,259.6,227.9,259.6z"/>
<rect x="226.4" y="269" class="st3" width="110" height="239"/>
<path class="st6" d="M203.7,536.3c0,0-13.3-45,2.5-78.1c6.7-13.9,8.7-29.5,5.8-44.6c-1.5-7.2-3.6-14.2-6.3-20.9"/>
<path class="st7" d="M215.5,371.6c0,5.5-10,21.5-10,21.5s-10-16-10-21.5c0-5.5,4.5-10,10-10S215.5,366.1,215.5,371.6z"/>
<path class="st7" d="M232,402.2c-3,4.6-20.1,12.6-20.1,12.6s0.3-18.9,3.3-23.5c2.8-4.8,8.9-6.4,13.7-3.6s6.4,8.9,3.6,13.7
	C232.3,401.7,232.2,401.9,232,402.2z"/>
<path class="st7" d="M231.2,454.4c-4.9,2.5-23.7,0.8-23.7,0.8s9.8-16.1,14.7-18.6c5-2.3,11,0,13.2,5
	C237.6,446.3,235.8,451.9,231.2,454.4L231.2,454.4z"/>
<path class="st7" d="M221.8,493.8c-4.4,3.3-23.2,4.8-23.2,4.8s6.9-17.5,11.4-20.8c4.6-3.1,10.8-1.8,13.9,2.8
	C226.6,484.8,225.8,490.5,221.8,493.8z"/>
<path class="st7" d="M190.9,415.9c4,3.8,22.4,7.8,22.4,7.8s-4.5-18.3-8.5-22.2c-3.8-4-10.1-4.2-14.1-0.5s-4.2,10.1-0.5,14.1
	C190.5,415.5,190.7,415.7,190.9,415.9L190.9,415.9z"/>
<path class="st7" d="M180.5,462.1c4.9,2.5,23.7,0.8,23.7,0.8s-9.8-16.1-14.7-18.6c-4.8-2.7-10.9-1-13.6,3.8
	c-2.7,4.8-1,10.9,3.8,13.6C179.9,461.9,180.2,462,180.5,462.1L180.5,462.1z"/>
<path class="st7" d="M176.5,508.4c4.4,3.3,23.2,4.8,23.2,4.8s-6.9-17.5-11.4-20.8c-4.6-3.1-10.8-1.8-13.9,2.8
	C171.6,499.4,172.5,505.1,176.5,508.4z"/>
<path class="st8" d="M716.5,536c0,0.1-0.1,0.2-0.1,0.3c-0.7,1.7-1.2,3.5-1.6,5.3c0.2-0.8,0.5-1.6,0.8-2.4
	C716.1,538.2,716.4,537.1,716.5,536z"/>
<path class="st8" d="M621.4,542.4c-0.5,0.1-1,0.8-1.5,1.8l0.2-0.1c0.4-0.1,1.2-1,2.1-2.3C622,542.1,621.7,542.3,621.4,542.4z"/>
<g>
	<g>
		<path class="st9" d="M910.6,319.3c1.1-1.9,0.4-4.4-1.5-5.5l-2.8-1.6c-1.9-1.1-4.4-0.4-5.5,1.5l-52.1,90.2
			c-1.1,1.9-0.4,4.4,1.5,5.5l2.8,1.6c1.9,1.1,4.4,0.4,5.5-1.5L910.6,319.3z"/>
	</g>
	<g>
		<path class="st9" d="M580.2,313.7c-1.1-1.9-3.6-2.6-5.5-1.5l-2.8,1.6c-1.9,1.1-2.6,3.6-1.5,5.5l52.1,90.2c1.1,1.9,3.6,2.6,5.5,1.5
			l2.8-1.6c1.9-1.1,2.6-3.6,1.5-5.5L580.2,313.7z"/>
	</g>
	<g>
		<path class="st2" d="M918,464.1c0,5.5-4.5,10-10,10H577.5c-5.5,0-10-4.5-10-10V414c0-5.5,4.5-10,10-10H908c5.5,0,10,4.5,10,10
			V464.1z"/>
	</g>
	<circle class="st7" cx="595.8" cy="439" r="10.5"/>
	<circle class="st7" cx="837.2" cy="439" r="5.6"/>
	<circle class="st7" cx="861.5" cy="439" r="5.6"/>
	<circle class="st7" cx="885.3" cy="439" r="5.6"/>
</g>
<g>
	<path class="st7" d="M303.7,369.8c0-2-0.1-3.9-0.3-5.8c-7.8-3.3-16.4-5.2-25.4-5.2c-9.6,0-18.7,2.1-26.9,5.9
		c-0.1,1.7-0.2,3.4-0.2,5.1c0,21.4,10.4,40.3,26.4,52.1C293.3,410.1,303.7,391.1,303.7,369.8z"/>
	<g>
		<path class="st3" d="M268.6,379.5c-0.8-0.8-2.1-0.8-2.8,0l-0.9,0.9c-0.8,0.8-0.8,2,0,2.8l9.8,9.8c0.8,0.8,2.1,0.8,2.8,0l14.2-14.2
			c0.8-0.8,0.8-2.1,0-2.8l-0.9-0.9c-0.8-0.8-2.1-0.8-2.8,0l-10.5,10.5c-0.8,0.8-2.1,0.8-2.8,0L268.6,379.5z"/>
	</g>
</g>
<g>
	<path class="st7" d="M427.5,297.4c0-2.7-0.1-5.4-0.4-8.1c-10.9-4.7-22.9-7.3-35.4-7.3c-13.4,0-26.1,3-37.5,8.2
		c-0.2,2.4-0.3,4.7-0.3,7.2c0,29.8,14.5,56.2,36.8,72.6C413,353.6,427.5,327.2,427.5,297.4z"/>
	<g>
		<path class="st3" d="M378,310.5c-0.8-0.8-2.1-0.8-2.8,0l-2.3,2.3c-0.8,0.8-0.8,2,0,2.8l14.8,14.8c0.8,0.8,2.1,0.8,2.8,0l21-21
			c0.8-0.8,0.8-2.1,0-2.8l-2.3-2.3c-0.8-0.8-2.1-0.8-2.8,0l-15.8,15.8c-0.8,0.8-2.1,0.8-2.8,0L378,310.5z"/>
	</g>
</g>
<g>
	<path class="st7" d="M635.1,219.9c0-3.5-0.2-7-0.5-10.5c-14.1-6-29.6-9.4-45.9-9.4c-17.3,0-33.8,3.8-48.6,10.6
		c-0.2,3.1-0.4,6.1-0.4,9.3c0,38.6,18.8,72.8,47.7,94C616.4,292.7,635.1,258.5,635.1,219.9z"/>
	<g>
		<path class="st3" d="M570.6,236.4c-0.8-0.8-2.1-0.8-2.8,0l-3.9,3.8c-0.8,0.8-0.8,2,0,2.8l20,20c0.8,0.8,2.1,0.8,2.8,0l28-28
			c0.8-0.8,0.8-2.1,0-2.8l-3.8-3.8c-0.8-0.8-2.1-0.8-2.8,0l-21.3,21.3c-0.8,0.8-2.1,0.8-2.8,0L570.6,236.4z"/>
	</g>
</g>
</svg>
